<?xml version="1.0" encoding="utf-8"?>
<!-- Generator: Adobe Illustrator 22.0.1, SVG Export Plug-In . SVG Version: 6.00 Build 0)  -->
<svg version="1.1" id="Layer_1" xmlns="http://www.w3.org/2000/svg" xmlns:xlink="http://www.w3.org/1999/xlink" x="0px" y="0px"
	 viewBox="0 0 1000 125" style="enable-background:new 0 0 1000 125;" xml:space="preserve">
<style type="text/css">
	.st0{fill:#FFFFFF;}
</style>
<polygon points="533.6,72.8 543.8,62.5 533.5,52.2 539.1,38.8 525.7,33.2 525.7,18.7 511.1,18.7 505.6,5.2 492.1,10.8 481.8,0.5 
	471.6,10.8 458.1,5.2 452.6,18.7 438,18.7 438,33.2 424.6,38.8 430.2,52.2 419.9,62.5 430.1,72.8 424.6,86.2 438,91.8 438,106.3 
	452.6,106.3 458.1,119.8 471.6,114.2 481.8,124.5 492.1,114.2 505.6,119.8 511.1,106.3 525.7,106.3 525.7,91.8 539.1,86.2 "/>
<polygon points="766.4,68.1 771.9,62.5 766.4,56.9 770.7,50.4 764.2,46 767.2,38.8 759.9,35.8 761.5,28.1 753.8,26.5 753.8,18.7 
	745.9,18.7 744.4,11 736.7,12.5 733.7,5.2 726.4,8.2 722,1.7 715.5,6.1 709.9,0.5 704.4,6.1 697.8,1.7 693.5,8.2 686.2,5.2 
	683.2,12.5 675.5,11 674,18.7 666.1,18.7 666.1,26.5 658.4,28.1 659.9,35.8 652.7,38.8 655.7,46 649.1,50.4 653.5,56.9 648,62.5 
	653.5,68.1 649.1,74.6 655.7,79 652.7,86.2 659.9,89.2 658.4,96.9 666.1,98.5 666.1,106.3 674,106.3 675.5,114 683.2,112.5 
	686.2,119.8 693.5,116.8 697.8,123.3 704.4,118.9 709.9,124.5 715.5,118.9 722,123.3 726.4,116.8 733.7,119.8 736.7,112.5 
	744.4,114 745.9,106.3 753.8,106.3 753.8,98.5 761.5,96.9 759.9,89.2 767.2,86.2 764.2,79 770.7,74.6 "/>
<polygon points="297.6,80.7 315.7,62.5 297.6,44.3 297.6,18.7 271.9,18.7 253.8,0.5 235.6,18.7 209.9,18.7 209.9,44.3 191.8,62.5 
	209.9,80.7 209.9,106.3 235.6,106.3 253.8,124.5 271.9,106.3 297.6,106.3 "/>
<rect y="18.7" width="87.7" height="87.7"/>
<g>
	<path d="M937.9,124.5c34.2,0,62-27.8,62-62c0-34.2-27.8-62-62-62c-34.2,0-62,27.8-62,62C875.9,96.7,903.7,124.5,937.9,124.5
		L937.9,124.5z"/>
	<path class="st0" d="M976.1,42.7c2.2,0,4.1-1.8,4.1-4.1c0-2.2-1.8-4.1-4.1-4.1c-2.2,0-4.1,1.8-4.1,4.1
		C972,40.9,973.9,42.7,976.1,42.7L976.1,42.7z"/>
	<path class="st0" d="M904.7,35.1h-9.3c-1.2,0-1.8,0.6-1.8,1.8v3.5c0,1.2,0.6,1.8,1.8,1.8h5.8v46c0,0.4,0.2,0.9,0.5,1.2
		c0.3,0.4,0.8,0.6,1.3,0.6h3.5c0.4,0,0.8-0.2,1.2-0.6c0.4-0.4,0.6-0.8,0.6-1.2V38.6c0-1-0.4-1.9-1.1-2.5
		C906.5,35.4,905.7,35.1,904.7,35.1L904.7,35.1L904.7,35.1z M936.5,53.4h3.5c1.2,0,1.8-0.6,1.8-1.8v-3.8c0-1.8-0.3-3.4-1-4.9
		c-0.7-1.5-1.6-2.9-2.8-4c-1.2-1.2-2.5-2.1-4-2.8c-1.5-0.7-3.2-1-4.9-1c-1.8,0-3.4,0.3-4.9,1c-1.5,0.7-2.9,1.6-4,2.8
		c-1.2,1.2-2.1,2.5-2.8,4c-0.7,1.5-1,3.2-1,4.9c0,0.9,0,1.6,0.1,2.1c0,0.5,0.1,1,0.3,1.4c0.1,0.4,0.4,0.9,0.8,1.4
		c0.4,0.5,0.9,1.2,1.6,2.1l15.4,20.4c0.1,0.2,0.2,0.4,0.3,0.6c0,0.1,0.1,0.6,0.1,1.3c0,1.6-0.6,2.9-1.7,4c-1.1,1.1-2.4,1.7-4,1.7
		s-2.9-0.6-4-1.7c-1.1-1.1-1.7-2.4-1.7-4v-3.8c0-1.2-0.6-1.8-1.8-1.8h-3.5c-1.2,0-1.8,0.6-1.8,1.8v3.8c0,1.8,0.3,3.4,1,4.9
		c0.7,1.5,1.6,2.9,2.8,4c1.2,1.2,2.5,2.1,4,2.8c1.5,0.7,3.2,1,4.9,1c1.8,0,3.4-0.3,4.9-1c1.5-0.7,2.9-1.6,4-2.8
		c1.2-1.2,2.1-2.5,2.8-4c0.7-1.5,1-3.2,1-4.9c0-0.9,0-1.6-0.1-2.1c0-0.5-0.1-1-0.3-1.4c-0.1-0.4-0.4-0.9-0.8-1.4
		c-0.4-0.5-0.9-1.2-1.6-2.1l-15.4-20.4c-0.1-0.2-0.2-0.4-0.3-0.6c0-0.1-0.1-0.6-0.1-1.3c0-1.6,0.6-2.9,1.7-4c1.1-1.1,2.4-1.7,4-1.7
		s2.9,0.6,4,1.7c1.1,1.1,1.7,2.4,1.7,4v3.8C934.8,52.8,935.4,53.4,936.5,53.4L936.5,53.4L936.5,53.4z M964.4,35.1h-17.1
		c-1.2,0-1.8,0.6-1.8,1.8v3.5c0,1.2,0.6,1.8,1.8,1.8h5v46c0,0.4,0.2,0.9,0.5,1.2c0.3,0.4,0.8,0.6,1.3,0.6h3.5c0.5,0,0.9-0.2,1.3-0.6
		c0.3-0.4,0.5-0.8,0.5-1.2v-46h5c1.2,0,1.8-0.6,1.8-1.8v-3.5C966.1,35.7,965.5,35.1,964.4,35.1L964.4,35.1L964.4,35.1z M979.7,49
		c0-0.5-0.2-0.9-0.6-1.3c-0.4-0.3-0.8-0.5-1.2-0.5h-3.5c-1.2,0-1.8,0.6-1.8,1.8v39.2c0,1.2,0.6,1.8,1.8,1.8h3.5
		c1.2,0,1.8-0.6,1.8-1.8V49L979.7,49z"/>
</g>
</svg>
