<svg xmlns="http://www.w3.org/2000/svg" viewBox="0 0 163.507 70.75">
  <defs>
    <style>
      .cls-1 {
        fill: #f26522;
      }

      .cls-1, .cls-3 {
        stroke: #2e3192;
        stroke-miterlimit: 10;
        stroke-width: 3.46px;
      }

      .cls-2, .cls-3 {
        fill: #fff;
      }

      .cls-4 {
        fill: #2e3192;
      }
    </style>
  </defs>
  <g id="Group_6430" data-name="Group 6430" transform="translate(0.03 0.03)">
    <rect id="Rectangle_585" data-name="Rectangle 585" class="cls-1" width="146.262" height="36.215" transform="translate(15.485 32.775)"/>
    <g id="Group_6406" data-name="Group 6406" transform="translate(26.544 41.498)">
      <g id="Group_6405" data-name="Group 6405">
        <path id="Path_3022" data-name="Path 3022" class="cls-2" d="M33.6,59.8h3.115l1.636,4.907c.312,1.012.623,2.1.935,3.193h.078c.312-1.09.623-2.181.935-3.193L41.933,59.8h2.96L41.077,70.236H37.494Z" transform="translate(-33.6 -54.348)"/>
        <path id="Path_3023" data-name="Path 3023" class="cls-2" d="M50.6,67.288c0-2.336,1.947-3.5,6.854-3.816-.078-.935-.779-1.48-2.181-1.48A6.9,6.9,0,0,0,52.08,63l-1.168-2.1a9.715,9.715,0,0,1,4.907-1.4c2.96,0,4.673,1.558,4.673,4.751v6H58l-.234-1.168h-.078a6.467,6.467,0,0,1-3.66,1.4A3.219,3.219,0,0,1,50.6,67.288Zm6.854-.234V65.341c-3.037.156-3.894.857-3.894,1.713,0,.7.545,1.012,1.4,1.012A4.383,4.383,0,0,0,57.454,67.055Z" transform="translate(-37.36 -54.282)"/>
        <path id="Path_3024" data-name="Path 3024" class="cls-2" d="M71.406,60.666H67.2V58.252h7.321V68.688H71.406Zm-.623-5.919a2.026,2.026,0,0,1,4.05,0,2.031,2.031,0,0,1-4.05,0Z" transform="translate(-41.032 -52.8)"/>
        <path id="Path_3025" data-name="Path 3025" class="cls-2" d="M99.478,59.734h2.492l.234,1.4h.078a5.167,5.167,0,0,1,3.583-1.636c2.336,0,3.427,1.636,3.427,4.206V70.17h-3.115V64.1c0-1.4-.389-2.025-1.558-2.025a2.817,2.817,0,0,0-2.1,1.09v6.931H99.4V59.734Z" transform="translate(-48.154 -54.282)"/>
        <path id="Path_3026" data-name="Path 3026" class="cls-2" d="M115.4,67.31c0-2.336,1.947-3.5,6.854-3.816-.078-.935-.779-1.48-2.181-1.48a6.9,6.9,0,0,0-3.193,1.012L115.789,61a9.715,9.715,0,0,1,4.907-1.4c2.96,0,4.673,1.558,4.673,4.751v6h-2.492l-.234-1.168h-.078a6.467,6.467,0,0,1-3.66,1.4C116.724,70.426,115.4,69.1,115.4,67.31Zm6.854-.234V65.363c-3.037.156-3.894.857-3.894,1.713,0,.7.545,1.012,1.4,1.012A4.383,4.383,0,0,0,122.254,67.077Z" transform="translate(-51.693 -54.304)"/>
        <path id="Path_3027" data-name="Path 3027" class="cls-2" d="M146.2,59.8h2.96l.623,4.829c.156,1.012.234,2.025.312,3.115h.078a20,20,0,0,1,.467-3.115l.623-3.427h2.259l.7,3.427c.234,1.012.389,2.025.545,3.115h.078c.156-1.09.156-2.025.312-3.115L155.7,59.8h2.882l-1.636,10.436h-3.66l-.545-3.427c-.156-.935-.234-1.869-.389-3.115h-.078c-.078.857-.156,1.791-.389,3.115l-.545,3.427h-3.583Z" transform="translate(-58.505 -54.348)"/>
        <path id="Path_3028" data-name="Path 3028" class="cls-2" d="M163.8,64.952a5.318,5.318,0,0,1,5.452-5.452,4.637,4.637,0,0,1,4.907,4.984,6.355,6.355,0,0,1-.156,1.4h-7.944v-2.1H171.9l-.467.623c0-1.636-.7-2.57-2.1-2.57-1.558,0-2.57,1.012-2.57,3.115,0,2.181,1.168,3.115,3.193,3.115a5.39,5.39,0,0,0,2.648-.7l1.012,1.869a7.774,7.774,0,0,1-4.128,1.246C166.292,70.4,163.8,68.456,163.8,64.952Z" transform="translate(-62.398 -54.282)"/>
        <path id="Path_3029" data-name="Path 3029" class="cls-2" d="M183.226,67.929h-.078l-.234,1.168H180.5V54.3h3.115v3.583l-.078,1.636h.078A4.132,4.132,0,0,1,186.5,58.35c2.57,0,4.206,2.1,4.206,5.3,0,3.583-2.181,5.685-4.517,5.685A4.594,4.594,0,0,1,183.226,67.929Zm4.206-4.206c0-1.869-.623-2.8-1.947-2.8a3.005,3.005,0,0,0-1.947.935V66.06a2.511,2.511,0,0,0,1.791.7C186.5,66.761,187.431,65.827,187.431,63.724Z" transform="translate(-66.091 -53.132)"/>
      </g>
    </g>
    <g id="Group_6409" data-name="Group 6409" transform="translate(1.7 1.7)">
      <rect id="Rectangle_586" data-name="Rectangle 586" class="cls-3" width="108.723" height="36.215"/>
      <g id="Group_6408" data-name="Group 6408" transform="translate(11.527 7.555)">
        <g id="Group_6407" data-name="Group 6407">
          <path id="Path_3030" data-name="Path 3030" class="cls-4" d="M16.5,25.052A5.318,5.318,0,0,1,21.952,19.6a4.637,4.637,0,0,1,4.907,4.984,6.354,6.354,0,0,1-.156,1.4H18.836v-2.1h5.841l-.467.623c0-1.636-.7-2.57-2.1-2.57-1.558,0-2.57,1.012-2.57,3.115,0,2.181,1.168,3.115,3.193,3.115a5.39,5.39,0,0,0,2.648-.7l1.012,1.869a7.774,7.774,0,0,1-4.128,1.246C19.07,30.581,16.5,28.556,16.5,25.052Z" transform="translate(-16.5 -13.214)"/>
          <path id="Path_3031" data-name="Path 3031" class="cls-4" d="M32.7,28.946,34.024,27a8.04,8.04,0,0,0,4.206,1.246c1.168,0,1.636-.389,1.636-.857,0-.545-.467-.779-2.57-1.246-2.8-.623-3.972-1.636-3.972-3.271,0-1.947,1.791-3.271,4.829-3.271A8.394,8.394,0,0,1,42.669,21l-1.4,1.869a6.982,6.982,0,0,0-3.427-1.012c-.935,0-1.48.312-1.48.857s.623.7,2.414,1.09c3.193.7,4.128,1.636,4.128,3.349,0,1.869-1.791,3.349-5.14,3.349A9.063,9.063,0,0,1,32.7,28.946Z" transform="translate(-20.083 -13.214)"/>
          <path id="Path_3032" data-name="Path 3032" class="cls-4" d="M51.348,25.146v-3.66H48.7V19.149l2.8-.156.389-3.193h2.57v3.271h4.361v2.414H54.463v3.66c0,1.558.7,2.181,2.181,2.181a5.209,5.209,0,0,0,2.025-.389l.545,2.259a10.521,10.521,0,0,1-3.427.545C52.594,29.741,51.348,27.872,51.348,25.146Z" transform="translate(-23.622 -12.373)"/>
          <path id="Path_3033" data-name="Path 3033" class="cls-4" d="M65.3,24.484V18.1h3.115v6.075c0,1.4.389,2.025,1.558,2.025A2.452,2.452,0,0,0,72,25.029V18.1h3.115V28.534H72.621l-.234-1.48h-.078a4.39,4.39,0,0,1-3.5,1.713C66.312,28.768,65.3,27.132,65.3,24.484Zm3.271-9.268L71.764,11.4l2.1,2.025L70.051,16.7Z" transform="translate(-27.294 -11.4)"/>
          <path id="Path_3034" data-name="Path 3034" class="cls-4" d="M81.1,23.979c0-3.427,2.181-5.452,4.439-5.452a3.458,3.458,0,0,1,2.648,1.09h.078l-.156-1.636V14.4h3.115V29.12H88.732L88.5,28.107h-.078a4.311,4.311,0,0,1-2.882,1.324C82.813,29.431,81.1,27.328,81.1,23.979Zm7.009,1.947V21.721a2.344,2.344,0,0,0-1.713-.7c-1.09,0-2.1.935-2.1,2.882,0,2.025.779,2.96,2.025,2.96A2.084,2.084,0,0,0,88.109,25.927Z" transform="translate(-30.788 -12.064)"/>
          <path id="Path_3035" data-name="Path 3035" class="cls-4" d="M102.406,20.844H98.2V18.43h7.321V28.866h-3.115Zm-.7-6a2.026,2.026,0,0,1,4.05,0,2.031,2.031,0,0,1-4.05,0Z" transform="translate(-34.57 -11.732)"/>
          <path id="Path_3036" data-name="Path 3036" class="cls-4" d="M113.5,25.152a5.3,5.3,0,1,1,10.592,0,5.3,5.3,0,1,1-10.592,0Zm7.477,0c0-1.791-.7-2.96-2.181-2.96-1.4,0-2.181,1.168-2.181,2.96s.7,2.96,2.181,2.96S120.977,26.943,120.977,25.152Z" transform="translate(-37.955 -13.236)"/>
        </g>
      </g>
    </g>
  </g>
</svg>
