<?xml version="1.0" encoding="utf-8"?>
<!-- Generator: Adobe Illustrator 22.0.1, SVG Export Plug-In . SVG Version: 6.00 Build 0)  -->
<svg version="1.1" id="Layer_1" xmlns="http://www.w3.org/2000/svg" xmlns:xlink="http://www.w3.org/1999/xlink" x="0px" y="0px"
	 viewBox="0 0 30 30" style="enable-background:new 0 0 30 30;" xml:space="preserve">
<style type="text/css">
	.st0{fill:#ED0677;}
</style>
<path class="st0" d="M15.6,23.1H7.9c-0.5,0-0.9-0.4-0.9-0.9V8c0-0.5,0.4-0.9,0.9-0.9h14.2C22.6,7.1,23,7.5,23,8v14.2
	c0,0.5-0.4,0.9-0.9,0.9h-4.1v-6.2h2.1l0.3-2.4h-2.4V13c0-0.7,0.2-1.2,1.2-1.2h1.3V9.6c-0.6-0.1-1.2-0.1-1.9-0.1
	c-1.6-0.1-3,1.1-3.1,2.7c0,0.2,0,0.3,0,0.5v1.8h-2.1v2.4h2.1L15.6,23.1L15.6,23.1z"/>
</svg>
