<?xml version="1.0" encoding="utf-8"?>
<!-- Generator: Adobe Illustrator 22.0.1, SVG Export Plug-In . SVG Version: 6.00 Build 0)  -->
<svg version="1.1" id="Layer_1" xmlns="http://www.w3.org/2000/svg" xmlns:xlink="http://www.w3.org/1999/xlink" x="0px" y="0px"
	 viewBox="0 0 30 30" style="enable-background:new 0 0 30 30;" xml:space="preserve">
<style type="text/css">
	.st0{fill:#ED0677;}
</style>
<path class="st0" d="M-32.4,24.1h-7.7c-0.5,0-0.9-0.4-0.9-0.9V9c0-0.5,0.4-0.9,0.9-0.9h14.2c0.5,0,0.9,0.4,0.9,0.9v14.2
	c0,0.5-0.4,0.9-0.9,0.9h-4.1v-6.2h2.1l0.3-2.4h-2.4V14c0-0.7,0.2-1.2,1.2-1.2h1.3v-2.2c-0.6-0.1-1.2-0.1-1.9-0.1
	c-1.6-0.1-3,1.1-3.1,2.7c0,0.2,0,0.3,0,0.5v1.8h-2.1v2.4h2.1L-32.4,24.1L-32.4,24.1z"/>
<g transform="translate(-3904 6923)">
	<path class="st0" d="M3927.9-6912.9C3927.9-6912.9,3927.9-6912.9,3927.9-6912.9L3927.9-6912.9l-5.7-2.8c0,0-0.1,0-0.1,0
		c-0.1,0-0.1,0-0.2,0c-0.2,0-0.4,0.1-0.6,0.3l-3.3,5.3l4.1,6.6L3927.9-6912.9C3927.9-6912.8,3927.9-6912.9,3927.9-6912.9"/>
	<path class="st0" d="M3916.3-6911.4v6l5.4,2.7L3916.3-6911.4"/>
	<path class="st0" d="M3922.5-6902.3l4.4,2.2c0.6,0.3,1,0.1,1-0.4v-10.6L3922.5-6902.3"/>
	<path class="st0" d="M3915.3-6912.9l-5.6-2.8c-0.1,0-0.2-0.1-0.3-0.1c-0.2,0-0.4,0.2-0.4,0.5v11.9c0,0.4,0.2,0.7,0.5,0.8l4.9,2.4
		c0.1,0.1,0.2,0.1,0.4,0.1c0.3,0,0.5-0.2,0.5-0.6L3915.3-6912.9C3915.4-6912.9,3915.4-6912.9,3915.3-6912.9"/>
</g>
<path class="st0" d="M67.5,23.3h-3.9v-5.6c0-1.5-0.6-2.5-1.9-2.5c-0.8,0-1.6,0.5-1.8,1.3c-0.1,0.3-0.1,0.6-0.1,0.9v5.8h-3.8
	c0,0,0-9.9,0-10.8h3.8v1.7c0.2-0.7,1.5-1.8,3.4-1.8c2.4,0,4.3,1.6,4.3,4.9L67.5,23.3L67.5,23.3z M52.1,11.1L52.1,11.1
	c-1.1,0.1-2-0.7-2.1-1.7c0,0,0-0.1,0-0.1c-0.1-1.1,0.7-2.2,1.9-2.3C53,6.8,54,7.7,54.1,8.8c0.1,1.1-0.7,2.2-1.9,2.3
	C52.2,11.1,52.1,11.1,52.1,11.1L52.1,11.1z M50.4,12.5h3.4v10.8h-3.4V12.5L50.4,12.5z"/>
</svg>
