<svg xmlns="http://www.w3.org/2000/svg" viewBox="0 0 113.429 115.436">
  <defs>
    <style>
      .cls-1, .cls-4 {
        fill: none;
        stroke-miterlimit: 10;
        stroke-width: 2px;
      }

      .cls-1 {
        stroke: #fff200;
      }

      .cls-2 {
        fill: #fff200;
      }

      .cls-3 {
        fill: #fff;
      }

      .cls-4 {
        stroke: #fff;
      }
    </style>
  </defs>
  <g id="Group_232" data-name="Group 232" transform="translate(1 0.714)">
    <g id="Group_214" data-name="Group 214" transform="translate(0 0)">
      <g id="Group_198" data-name="Group 198" transform="translate(30.564 2.798)">
        <g id="Group_197" data-name="Group 197">
          <line id="Line_11" data-name="Line 11" class="cls-1" y2="17.649" transform="translate(1.937)"/>
          <g id="Group_196" data-name="Group 196" transform="translate(0 15.497)">
            <ellipse id="Ellipse_2" data-name="Ellipse 2" class="cls-2" cx="1.937" cy="1.937" rx="1.937" ry="1.937"/>
          </g>
        </g>
      </g>
      <line id="Line_12" data-name="Line 12" class="cls-1" x2="10.977" y2="10.977" transform="translate(40.895)"/>
      <path id="Path_99" data-name="Path 99" class="cls-1" d="M20.5,19.556H34.275l8.609-8.609L32.123.4" transform="translate(22.547 -0.4)"/>
      <path id="Path_100" data-name="Path 100" class="cls-1" d="M37.366,1.7V12.892L32.2,18.058v3.874" transform="translate(36.03 1.098)"/>
      <path id="Path_101" data-name="Path 101" class="cls-1" d="M43.718,4.2V17.76H36.4" transform="translate(40.87 3.979)"/>
      <path id="Path_102" data-name="Path 102" class="cls-1" d="M48.718,8v7.533L41.4,22.851" transform="translate(46.632 8.358)"/>
      <line id="Line_13" data-name="Line 13" class="cls-1" y2="8.179" transform="translate(78.561 90.399)"/>
      <path id="Path_103" data-name="Path 103" class="cls-1" d="M61.967,13.1,45.825,29.673V46.031L37,54.856V69.707" transform="translate(41.561 14.235)"/>
      <path id="Path_104" data-name="Path 104" class="cls-1" d="M58.345,18.2,45,31.329v8.609" transform="translate(50.78 20.112)"/>
      <g id="Group_201" data-name="Group 201" transform="translate(85.664 49.074)">
        <g id="Group_200" data-name="Group 200">
          <path id="Path_105" data-name="Path 105" class="cls-1" d="M65.307,23.2l-5.381,5.6V39.773H49.594L41.2,48.167V76.148" transform="translate(-39.263 -23.2)"/>
          <g id="Group_199" data-name="Group 199" transform="translate(0 51.011)">
            <ellipse id="Ellipse_3" data-name="Ellipse 3" class="cls-2" cx="1.937" cy="1.937" rx="1.937" ry="1.937"/>
          </g>
        </g>
      </g>
      <path id="Path_106" data-name="Path 106" class="cls-1" d="M50.081,54.2,44.7,48.821V37.844L47.929,34.4H58.69" transform="translate(50.435 38.781)"/>
      <path id="Path_107" data-name="Path 107" class="cls-1" d="M6.8,7.6l7.964,7.749v7.1L25.741,33.428" transform="translate(6.76 7.897)"/>
      <path id="Path_108" data-name="Path 108" class="cls-1" d="M16,21.4H34.941L45.272,34.745V54.116" transform="translate(17.362 23.8)"/>
      <line id="Line_14" data-name="Line 14" class="cls-1" x2="15.712" y2="15.712" transform="translate(6.027 26.905)"/>
      <g id="Group_204" data-name="Group 204" transform="translate(2.798 38.312)">
        <g id="Group_203" data-name="Group 203">
          <line id="Line_15" data-name="Line 15" class="cls-1" x2="17.649" y2="17.219"/>
          <g id="Group_202" data-name="Group 202" transform="translate(15.575 15.144)">
            <path id="Path_109" data-name="Path 109" class="cls-2" d="M9.6,28.6a1.835,1.835,0,0,0,2.8,0,1.835,1.835,0,0,0,0-2.8c-.861-.646-2.152-.861-2.8,0A2.015,2.015,0,0,0,9.6,28.6Z" transform="translate(-9.036 -25.236)"/>
          </g>
        </g>
      </g>
      <g id="Group_207" data-name="Group 207" transform="translate(42.617 90.399)">
        <g id="Group_206" data-name="Group 206">
          <path id="Path_110" data-name="Path 110" class="cls-1" d="M33.214,42.4V52.947L20.3,64.785H33" transform="translate(-20.3 -42.4)"/>
          <g id="Group_205" data-name="Group 205" transform="translate(10.762 20.448)">
            <ellipse id="Ellipse_4" data-name="Ellipse 4" class="cls-2" cx="1.937" cy="1.937" rx="1.937" ry="1.937"/>
          </g>
        </g>
      </g>
      <g id="Group_210" data-name="Group 210" transform="translate(53.379 62.849)">
        <g id="Group_209" data-name="Group 209">
          <line id="Line_16" data-name="Line 16" class="cls-1" y2="10.547" transform="translate(2.152)"/>
          <g id="Group_208" data-name="Group 208" transform="translate(0 8.609)">
            <path id="Path_111" data-name="Path 111" class="cls-2" d="M25.3,35.537A1.937,1.937,0,1,0,27.237,33.6,1.929,1.929,0,0,0,25.3,35.537Z" transform="translate(-25.3 -33.6)"/>
          </g>
        </g>
      </g>
      <path id="Path_112" data-name="Path 112" class="cls-1" d="M29.6,64.424V42.9L45.312,58.4" transform="translate(33.034 48.576)"/>
      <path id="Path_113" data-name="Path 113" class="cls-1" d="M26.2,42.4V53.162l-9.9,9.255" transform="translate(17.707 47.999)"/>
      <line id="Line_17" data-name="Line 17" class="cls-1" y2="9.901" transform="translate(43.908 65.432)"/>
      <path id="Path_114" data-name="Path 114" class="cls-1" d="M19.192,64.32l7.964-7.964L8,37.2" transform="translate(8.143 42.007)"/>
      <g id="Group_213" data-name="Group 213" transform="translate(7.533 56.607)">
        <g id="Group_212" data-name="Group 212">
          <line id="Line_18" data-name="Line 18" class="cls-1" x1="21.739" y1="21.524" transform="translate(1.937 2.152)"/>
          <g id="Group_211" data-name="Group 211">
            <path id="Path_115" data-name="Path 115" class="cls-2" d="M7.444,27.346a1.835,1.835,0,0,0-2.8,0,1.835,1.835,0,0,0,0,2.8,1.835,1.835,0,0,0,2.8,0A1.835,1.835,0,0,0,7.444,27.346Z" transform="translate(-4 -26.7)"/>
          </g>
        </g>
      </g>
      <path id="Path_116" data-name="Path 116" class="cls-1" d="M.5,23.2V36.975L11.262,47.952" transform="translate(-0.5 25.874)"/>
      <line id="Line_19" data-name="Line 19" class="cls-1" x2="16.358" y2="16.358" transform="translate(5.381 81.79)"/>
    </g>
    <rect id="Rectangle_78" data-name="Rectangle 78" class="cls-3" width="46.061" height="47.137" transform="translate(32.501 32.716)"/>
    <g id="Group_215" data-name="Group 215" transform="translate(32.501 25.828)">
      <line id="Line_20" data-name="Line 20" class="cls-4" y2="61.988"/>
      <line id="Line_21" data-name="Line 21" class="cls-4" y2="61.988" transform="translate(46.061)"/>
      <line id="Line_22" data-name="Line 22" class="cls-4" y2="61.988" transform="translate(35.514)"/>
      <line id="Line_23" data-name="Line 23" class="cls-4" y2="61.988" transform="translate(23.03)"/>
      <line id="Line_24" data-name="Line 24" class="cls-4" y2="61.988" transform="translate(11.408)"/>
    </g>
    <g id="Group_216" data-name="Group 216" transform="translate(24.537 33.792)">
      <line id="Line_25" data-name="Line 25" class="cls-4" x1="61.988"/>
      <line id="Line_26" data-name="Line 26" class="cls-4" x1="61.988" transform="translate(0 46.061)"/>
      <line id="Line_27" data-name="Line 27" class="cls-4" x1="61.988" transform="translate(0 35.514)"/>
      <line id="Line_28" data-name="Line 28" class="cls-4" x1="61.988" transform="translate(0 23.03)"/>
      <line id="Line_29" data-name="Line 29" class="cls-4" x1="61.988" transform="translate(0 11.408)"/>
    </g>
  </g>
</svg>
