<svg id="Group_305" data-name="Group 305" xmlns="http://www.w3.org/2000/svg" xmlns:xlink="http://www.w3.org/1999/xlink" viewBox="0 0 175.778 175.122">
  <defs>
    <style>
      .cls-1, .cls-4 {
        fill: none;
      }

      .cls-2 {
        clip-path: url(#clip-path);
      }

      .cls-3 {
        fill: #ffd74a;
      }

      .cls-4 {
        stroke: #2b2e34;
        stroke-width: 1.5px;
      }
    </style>
    <clipPath id="clip-path">
      <path id="Path_132" data-name="Path 132" class="cls-1" d="M0-25.022H175.778V-200.144H0Z" transform="translate(0 200.144)"/>
    </clipPath>
  </defs>
  <g id="Group_304" data-name="Group 304" class="cls-2" transform="translate(0 0)">
    <g id="Group_301" data-name="Group 301" transform="translate(0.656 0)">
      <path id="Path_129" data-name="Path 129" class="cls-3" d="M-12.464-24.928a87.233,87.233,0,0,0,87.233-87.233,87.233,87.233,0,0,0-87.233-87.233A87.233,87.233,0,0,0-99.7-112.161,87.233,87.233,0,0,0-12.464-24.928" transform="translate(99.697 199.394)"/>
    </g>
    <g id="Group_302" data-name="Group 302" transform="translate(0.656 35.146)">
      <path id="Path_130" data-name="Path 130" class="cls-4" d="M-2.465,0A87.235,87.235,0,1,0,154.75,52.087c0-19.271-5.679-36.3-16.26-50.74" transform="translate(19.716)"/>
    </g>
    <g id="Group_303" data-name="Group 303" transform="translate(158.231 36.492)">
      <path id="Path_131" data-name="Path 131" class="cls-4" d="M0-.77.631-6.161,5.961-5.14" transform="translate(0 6.161)"/>
    </g>
  </g>
</svg>
