<svg xmlns="http://www.w3.org/2000/svg" viewBox="0 0 124.331 120.456">
  <defs>
    <style>
      .cls-1 {
        fill: #fff;
      }

      .cls-2 {
        fill: none;
        stroke: #fff200;
        stroke-miterlimit: 10;
        stroke-width: 2px;
      }

      .cls-3 {
        fill: #fff200;
      }
    </style>
  </defs>
  <g id="Group_195" data-name="Group 195" transform="translate(1 1)">
    <path id="Path_92" data-name="Path 92" class="cls-1" d="M78,36c-.215,5.811-3.229,12.268-7.749,17.865-7.318,9.686-17.865,17.865-25.4,20.878C34.742,70.65,19.03,57.09,13.649,43.315A30.085,30.085,0,0,1,11.927,36C11.066,20.715,21.4,14.689,31.3,15.765A15.484,15.484,0,0,1,41.414,20.5l3.444,3.013,3.874-3.229a18.436,18.436,0,0,1,10.116-4.52C68.534,14.689,78.866,20.931,78,36Z" transform="translate(12.61 16.951)"/>
    <g id="Group_194" data-name="Group 194" transform="translate(0 0)">
      <g id="Group_187" data-name="Group 187" transform="translate(28.411)">
        <g id="Group_186" data-name="Group 186">
          <path id="Path_93" data-name="Path 93" class="cls-2" d="M13.7,8.464A56.3,56.3,0,0,1,42.972.5a57.8,57.8,0,0,1,57.683,55.316" transform="translate(-13.7 -0.5)"/>
          <g id="Group_185" data-name="Group 185" transform="translate(77.485 46.276)">
            <path id="Path_94" data-name="Path 94" class="cls-3" d="M49.7,24.583l1.291-1.507,7.964,7.1L65.412,22l1.722,1.291L59.17,33.408Z" transform="translate(-49.7 -22)"/>
          </g>
        </g>
      </g>
      <g id="Group_190" data-name="Group 190" transform="translate(0 6.242)">
        <g id="Group_189" data-name="Group 189">
          <path id="Path_95" data-name="Path 95" class="cls-2" d="M28.911,102.948A57.748,57.748,0,0,1,26.759,4.8" transform="translate(-0.5 -1.787)"/>
          <g id="Group_188" data-name="Group 188" transform="translate(15.282)">
            <path id="Path_96" data-name="Path 96" class="cls-3" d="M17.931,17.821l-2.152-.43L18.147,7.059,7.6,5.552,7.815,3.4,20.729,5.122Z" transform="translate(-7.6 -3.4)"/>
          </g>
        </g>
      </g>
      <g id="Group_193" data-name="Group 193" transform="translate(28.411 57.683)">
        <g id="Group_192" data-name="Group 192">
          <path id="Path_97" data-name="Path 97" class="cls-2" d="M99.619,27.3A57.687,57.687,0,0,1,41.935,84.983,58.492,58.492,0,0,1,14.6,78.1" transform="translate(-12.663 -27.3)"/>
          <g id="Group_191" data-name="Group 191" transform="translate(0 46.061)">
            <path id="Path_98" data-name="Path 98" class="cls-3" d="M25.969,48.7l.646,1.937L16.5,53.65l3.659,9.9-1.937.861L13.7,52.359Z" transform="translate(-13.7 -48.7)"/>
          </g>
        </g>
      </g>
    </g>
  </g>
</svg>
