<svg xmlns="http://www.w3.org/2000/svg" width="38.221" height="32.034" viewBox="0 0 38.221 32.034">
  <g id="Group_27" data-name="Group 27" transform="translate(0)">
    <path id="Path_30" data-name="Path 30" d="M3932.921-6917.239h0l-11.526-5.662h-.607a1.752,1.752,0,0,0-1.213.606l-6.674,10.718,8.292,13.347,11.729-19.009h0" transform="translate(-3894.7 6923.104)"/>
    <path id="Path_31" data-name="Path 31" d="M3911.2-6918.6v12.133l10.92,5.46L3911.2-6918.6" transform="translate(-3896.438 6927.499)"/>
    <path id="Path_32" data-name="Path 32" d="M3917.4-6900.506l8.9,4.449c1.213.606,2.022.2,2.022-.809V-6918.3l-10.919,17.795" transform="translate(-3890.1 6927.806)"/>
    <path id="Path_33" data-name="Path 33" d="M3916.641-6917.137l-11.325-5.662c-.2,0-.4-.2-.606-.2a.925.925,0,0,0-.809,1.011v24.064a1.6,1.6,0,0,0,1.011,1.617l9.908,4.854c.2.2.4.2.809.2.607,0,1.011-.4,1.011-1.213v-24.671h0" transform="translate(-3903.901 6923.001)"/>
  </g>
</svg>
