<svg id="Group_233" data-name="Group 233" xmlns="http://www.w3.org/2000/svg" xmlns:xlink="http://www.w3.org/1999/xlink" viewBox="0 0 115.797 115.797">
  <defs>
    <style>
      .cls-1 {
        fill: none;
        stroke: #fff200;
        stroke-miterlimit: 10;
        stroke-width: 2px;
      }

      .cls-2 {
        fill: #ed1971;
      }

      .cls-3 {
        clip-path: url(#clip-path);
      }

      .cls-4 {
        fill: #fff;
      }
    </style>
    <clipPath id="clip-path">
      <ellipse id="Ellipse_7" data-name="Ellipse 7" cx="57.899" cy="57.899" rx="57.899" ry="57.899"/>
    </clipPath>
  </defs>
  <g id="Group_218" data-name="Group 218" transform="translate(0.215 0.215)">
    <line id="Line_30" data-name="Line 30" class="cls-1" x2="115.367" transform="translate(0 57.683)"/>
    <line id="Line_31" data-name="Line 31" class="cls-1" y1="57.683" x2="99.87" transform="translate(7.749 28.842)"/>
    <line id="Line_32" data-name="Line 32" class="cls-1" x2="99.87" y2="57.683" transform="translate(7.749 28.842)"/>
    <line id="Line_33" data-name="Line 33" class="cls-1" y2="115.367" transform="translate(57.683)"/>
    <line id="Line_34" data-name="Line 34" class="cls-1" x2="57.683" y2="99.87" transform="translate(28.842 7.749)"/>
    <line id="Line_35" data-name="Line 35" class="cls-1" x1="57.683" y2="99.87" transform="translate(28.842 7.749)"/>
    <path id="Path_117" data-name="Path 117" class="cls-2" d="M20.534,19.6s-.43,12.914-1.507,22.169c-.43,3.874,1.937,7.1,2.583,11.623,1.076,6.242-1.722,13.345-1.722,13.345H52.6a17.735,17.735,0,0,1-2.152-11.623c.646-4.3,3.229-9.47,2.583-14.206C51.529,28.425,51.1,19.6,51.1,19.6H20.534Z" transform="translate(21.652 22.371)"/>
    <ellipse id="Ellipse_5" data-name="Ellipse 5" class="cls-2" cx="13.775" cy="10.331" rx="13.775" ry="10.331" transform="translate(43.908 35.084)"/>
    <ellipse id="Ellipse_6" data-name="Ellipse 6" class="cls-2" cx="7.318" cy="7.318" rx="7.318" ry="7.318" transform="translate(50.365 29.918)"/>
  </g>
  <g id="Group_220" data-name="Group 220" transform="translate(0 0)">
    <g id="Group_219" data-name="Group 219" class="cls-3">
      <path id="Path_118" data-name="Path 118" class="cls-4" d="M58.08,120.6h0v-.43c-.215-1.507-2.368-15.928-4.3-31.425h0L51.838,74.536h0c-.861-7.1-1.507-15.067-1.722-20.232,1.076-.646,1.722-1.507,2.368-1.722a3.824,3.824,0,0,0,.861-2.152V47.2h0V43.542a4.157,4.157,0,0,0-1.507-3.229h0c-.215-.215-.43-.43-.646-.43a7.956,7.956,0,0,0-2.368-1.076v-4.09c.215-.215.43-.215.861-.43a2.647,2.647,0,0,0,1.507-2.368,2.4,2.4,0,0,0-.646-2.152A11.339,11.339,0,0,0,42.8,20.942V18.359c0-.215,0-.215-.215-.43S41.076,14.7,37.632,14.7A4.9,4.9,0,0,0,32.9,17.5c-.215.215-.215.215-.215.43v3.229c-6.242,1.722-7.318,7.1-7.749,8.609a2.828,2.828,0,0,0-.646,2.152,3.111,3.111,0,0,0,1.507,2.152c.215.215.43.215.861.43v3.874a7.183,7.183,0,0,0-2.583,1.076,4.087,4.087,0,0,0-1.722,3.229V47.2h0v3.013a2.763,2.763,0,0,0,.861,2.152,8.283,8.283,0,0,0,2.368,1.722c-.215,5.166-.861,13.345-1.722,20.232L22.135,87.45h0c-2.152,16.573-4.52,32.07-4.735,32.716v.215c.215,2.368,3.013,5.166,7.1,6.888h0l4.3,1.507h0a52.8,52.8,0,0,0,8.394.861c12.7,0,20.448-5.166,20.448-9.04C58.08,120.812,58.08,120.812,58.08,120.6Zm-7.1-74.041h0a9.694,9.694,0,0,1-2.152,1.937v-4.95c.43-.215,1.507-.861,2.152-1.291a1.613,1.613,0,0,1,.215,1.076l-.215,3.229Zm-1.507-5.6c-.215.215-.43.215-.646.43v-.646C49.04,40.744,49.255,40.959,49.47,40.959ZM34.834,18.144a3.1,3.1,0,0,1,2.8-1.507,3.172,3.172,0,0,1,2.8,1.722v3.229a4.342,4.342,0,0,1-2.583.861,4.419,4.419,0,0,1-3.013-1.076S34.834,18.144,34.834,18.144Zm3.013,18.3a29.536,29.536,0,0,0,8.825-1.076v7.1a25.017,25.017,0,0,1-9.04,1.722H37.2a20.115,20.115,0,0,1-8.394-1.722V35.147A28.818,28.818,0,0,0,37.848,36.439Zm8.825,8.179v5.166h0a16.87,16.87,0,0,1-3.013,1.076V45.479A15.855,15.855,0,0,0,46.672,44.618Zm-4.95,6.457c-.646,0-1.722.215-3.444.215V46.125c1.076,0,2.368-.215,3.444-.215Zm-5.6-4.95V51.29c-1.076-.215-2.152-.215-3.229-.43V45.694C33.973,45.909,35.049,45.909,36.126,46.125Zm-5.381-.646v5.166a10.492,10.492,0,0,1-2.368-.861l.215-4.95A3.636,3.636,0,0,1,30.745,45.479Zm-4.09-4.95v.861a2.971,2.971,0,0,1-.861-.646C26.009,40.744,26.225,40.528,26.655,40.528ZM24.288,42.9c0-.215,0-.215.215-.43a7.48,7.48,0,0,0,2.368,1.507v4.735A12.783,12.783,0,0,1,24.5,46.986l-.215-4.09Zm0,7.533v-.861a8.132,8.132,0,0,0,2.368,1.507l.215.215a49.834,49.834,0,0,0,4.735,1.722h.215c1.937.215,3.874.646,5.166.646h0c3.013-.215,4.95-.215,5.6-.215h0a21.23,21.23,0,0,0,4.735-1.507,15.965,15.965,0,0,0,3.444-2.152v.861c0,.215-.215.43-.215.861C49.47,52.8,45.811,55.6,37.417,55.6s-11.838-2.8-13.129-4.09A1.68,1.68,0,0,0,24.288,50.429Z" transform="translate(20.051 16.94)"/>
    </g>
  </g>
</svg>
