<?xml version="1.0" encoding="utf-8"?>
<!-- Generator: Adobe Illustrator 23.0.3, SVG Export Plug-In . SVG Version: 6.00 Build 0)  -->
<svg version="1.1" id="Layer_1" xmlns="http://www.w3.org/2000/svg" xmlns:xlink="http://www.w3.org/1999/xlink" x="0px" y="0px"
	 viewBox="0 0 20.5 20.5" style="enable-background:new 0 0 20.5 20.5;" xml:space="preserve">
<path id="Path_2994" d="M18.4,0H2C0.9,0,0,0.9,0,2v16.4c0,1.1,0.9,2,2,2h16.4c1.1,0,2-0.9,2-2V2C20.5,0.9,19.6,0,18.4,0z M16.1,7.5
	c-0.1,4.7-3.1,8-7.6,8.2c-1.6,0.1-3.1-0.4-4.4-1.2c1.4,0.2,2.9-0.2,4-1.1c-1.2,0-2.2-0.8-2.6-1.9c0.4,0.1,0.8,0.1,1.1,0
	c-1.3-0.3-2.2-1.4-2.2-2.8c0.3,0.2,0.7,0.3,1.1,0.3C4.5,8,4.2,6.5,4.8,5.2c1.4,1.7,3.4,2.7,5.6,2.9c-0.7-2.9,3.2-4.4,4.7-2.5
	c0.6-0.1,1.2-0.3,1.7-0.6c-0.2,0.6-0.6,1.2-1.1,1.5c0.5-0.1,1-0.2,1.4-0.4C17.1,6.7,16.6,7.1,16.1,7.5z"/>
</svg>
