<svg id="Group_324" data-name="Group 324" xmlns="http://www.w3.org/2000/svg" xmlns:xlink="http://www.w3.org/1999/xlink" viewBox="0 0 220.965 246.798">
  <defs>
    <style>
      .cls-1, .cls-4 {
        fill: none;
      }

      .cls-2 {
        clip-path: url(#clip-path);
      }

      .cls-3 {
        fill: #ffd74a;
      }

      .cls-4 {
        stroke: #2b2e34;
        stroke-width: 1.5px;
      }
    </style>
    <clipPath id="clip-path">
      <path id="Path_146" data-name="Path 146" class="cls-1" d="M0-35.263H220.965v-246.8H0Z" transform="translate(0 282.061)"/>
    </clipPath>
  </defs>
  <g id="Group_320" data-name="Group 320" class="cls-2">
    <g id="Group_314" data-name="Group 314" transform="translate(89.459 0.656)">
      <path id="Path_140" data-name="Path 140" class="cls-3" d="M-9.348-18.7A65.425,65.425,0,0,1-74.773-84.121,65.425,65.425,0,0,1-9.348-149.546,65.425,65.425,0,0,1,56.077-84.121,65.425,65.425,0,0,1-9.348-18.7" transform="translate(74.773 149.546)"/>
    </g>
    <g id="Group_315" data-name="Group 315" transform="translate(89.459 0.657)">
      <path id="Path_141" data-name="Path 141" class="cls-4" d="M0-9.21C0-45.344,29.292-73.671,65.425-73.671A65.424,65.424,0,0,1,130.85-8.247,65.425,65.425,0,0,1,65.425,57.178" transform="translate(0 73.671)"/>
    </g>
    <g id="Group_316" data-name="Group 316" transform="translate(85.764 61.142)">
      <path id="Path_142" data-name="Path 142" class="cls-4" d="M0,0,3.7,3.975,7.391,0"/>
    </g>
    <g id="Group_317" data-name="Group 317" transform="translate(3.31 68.905)">
      <path id="Path_143" data-name="Path 143" class="cls-3" d="M-12.464-24.928a87.233,87.233,0,0,0,87.233-87.233,87.233,87.233,0,0,0-87.233-87.233A87.233,87.233,0,0,0-99.7-112.161,87.233,87.233,0,0,0-12.464-24.928" transform="translate(99.697 199.394)"/>
    </g>
    <g id="Group_318" data-name="Group 318" transform="translate(4.176 69.771)">
      <path id="Path_144" data-name="Path 144" class="cls-4" d="M0-12.2c0-47.7,38.668-85.4,86.367-85.4a86.366,86.366,0,0,1,86.367,86.367A86.367,86.367,0,0,1,86.367,75.128" transform="translate(0 97.605)"/>
    </g>
    <g id="Group_319" data-name="Group 319" transform="translate(0.481 151.199)">
      <path id="Path_145" data-name="Path 145" class="cls-4" d="M0,0,3.7,3.975,7.391,0"/>
    </g>
  </g>
  <g id="Group_321" data-name="Group 321" transform="translate(3.31 242.622)">
    <path id="Path_147" data-name="Path 147" class="cls-4" d="M0,0H173.5"/>
  </g>
  <g id="Group_323" data-name="Group 323" class="cls-2">
    <g id="Group_322" data-name="Group 322" transform="translate(172.837 238.926)">
      <path id="Path_148" data-name="Path 148" class="cls-4" d="M0,0,3.975,3.7,0,7.391"/>
    </g>
  </g>
</svg>
