<svg xmlns="http://www.w3.org/2000/svg" width="32.979" height="32.979" viewBox="0 0 32.979 32.979">
  <g id="Group_6475" data-name="Group 6475" transform="translate(0)">
    <circle id="Ellipse_1119" data-name="Ellipse 1119" cx="5.52" cy="5.52" r="5.52" transform="translate(10.97 11.039)"/>
    <path id="Path_6705" data-name="Path 6705" d="M98.541,86.09a15.848,15.848,0,0,0-.759-3.933,7.43,7.43,0,0,0-1.863-2.9,8.308,8.308,0,0,0-2.9-1.863,11.682,11.682,0,0,0-3.933-.759c-1.863-.138-2.415-.138-6.9-.138s-5.037,0-6.9.138a15.846,15.846,0,0,0-3.933.759,7.429,7.429,0,0,0-2.9,1.863,8.308,8.308,0,0,0-1.863,2.9,11.683,11.683,0,0,0-.759,3.933c-.138,1.725-.138,2.346-.138,6.9,0,4.485,0,5.037.138,6.9a15.847,15.847,0,0,0,.759,3.933,6.724,6.724,0,0,0,1.863,2.9,8.308,8.308,0,0,0,2.9,1.863,11.682,11.682,0,0,0,3.933.759c1.725.138,2.346.138,6.9.138s5.037,0,6.9-.138a15.848,15.848,0,0,0,3.933-.759,7.43,7.43,0,0,0,2.9-1.863,8.309,8.309,0,0,0,1.863-2.9,11.682,11.682,0,0,0,.759-3.933c.138-1.725.138-2.346.138-6.9C98.679,88.5,98.679,87.953,98.541,86.09ZM82.19,101.545a8.486,8.486,0,1,1,8.486-8.486A8.57,8.57,0,0,1,82.19,101.545Zm8.831-15.386a2,2,0,0,1,0-4,2.1,2.1,0,0,1,2,2A2.048,2.048,0,0,1,91.021,86.159Z" transform="translate(-65.7 -76.5)"/>
  </g>
</svg>
