<svg xmlns="http://www.w3.org/2000/svg" width="35.406" height="32.979" viewBox="0 0 35.406 32.979">
  <path id="Path_34" data-name="Path 34" d="M35.4,32.971H27.511V21.647c0-3.033-1.213-5.056-3.842-5.056a3.7,3.7,0,0,0-3.64,2.629,5.6,5.6,0,0,0-.2,1.82V32.769H11.94V10.929h7.685v3.438c.4-1.416,3.033-3.64,6.876-3.64,4.853,0,8.7,3.236,8.7,9.909l.2,12.336ZM4.255,8.5h0A4.033,4.033,0,0,1,.009,4.862v-.2A4.169,4.169,0,0,1,3.851.009,4.4,4.4,0,0,1,8.5,3.851,4.571,4.571,0,0,1,4.66,8.5ZM1.02,11.131H7.9v21.84H1.02V11.131Z" transform="translate(0.008 0.008)"/>
</svg>
