<svg xmlns="http://www.w3.org/2000/svg" viewBox="0 0 532.857 175.307"><defs><style>.a{fill:#fae80a;}</style></defs><g transform="translate(-24 -44)"><path class="a" d="M115.645,81.24h12.231L126.154,44,78,81.24H95.292L25.73,156.122H68.421L24,219.306H98.751l28.067-91.112H95.561Z" transform="translate(0 0)"/><path d="M257.63,128.007c-14.6-.54-25.991,6.337-28.676,20.409-4.836,25.03,26.96,23.522,24.919,34.051-.754,3.971-3.653,5.908-7.949,5.8-3.653-.1-7.091-2.255-5.368-7.949H221.538c-3.113,15.469,6.448,25.03,21.481,25.777,15.358.754,27.064-5.694,29.97-20.623,5.154-26.42-27.818-23.2-25.348-34.584.969-3.867,3.867-5.265,7.2-5.154,2.795.1,6.551,2.152,4.725,7.195h18.686c3.231-14.825-6.116-24.386-20.616-24.919Zm26.31,32.757h5.694l-4.836,22.02c-3.328,15.9,1.612,24.809,22.235,22.768l3.438-16.112c-6.662,1.183-8.807-.54-7.949-4.621l5.265-24.061h8.807l3.542-16.112h-8.918l2.684-12.57h-12.57c-2.144,10.2-5.154,13.643-14.071,13.643l-3.321,15.047Zm76.695-16.756c-11.277-1.4-15.469,5.908-15.469,5.908l1.072-5.265H329.157L316.268,205.02h18.153l6.662-31.471c2.041-9.561,7.195-12.57,15.787-11.705,0-.007,3.867-17.835,3.764-17.835Zm-2.795,82.167h18.153l39.738-81.523H396.18l-13.532,32.654.325-32.654H364.391l3.653,60.368-10.2,21.156Zm58.106-65.411h5.694l-4.836,22.02c-3.328,15.9,1.612,24.809,22.235,22.768l3.438-16.112c-6.662,1.183-8.807-.54-7.949-4.621l5.265-24.061H448.6l3.542-16.112h-8.917l2.684-12.57H433.344c-2.152,10.2-5.154,13.643-14.071,13.643l-3.328,15.047ZM478.14,185.9l-.325,1.5c-.643,3.224-3.653,4.082-5.583,4.082-2.041,0-4.407-.969-3.542-4.836l1.287-6.337h27.389l3.009-13.214c3.113-14.715-4.725-23.2-19.011-23.2-15.469,0-23.418,8.164-26.856,23.847l-3.113,14.826c-3.009,14.39,4.4,23.522,18.8,23.522,15.573,0,23.307-7.838,25.888-19.765l.1-.429Zm-4.621-22.235c.858-4.082,3.653-4.94,5.8-4.94,2.041,0,4.4.858,3.542,4.94l-.858,4.3h-9.346l.865-4.3Zm53.809,2.041c.858-4.082,3.653-5.05,5.8-5.05,1.937,0,4.3.969,3.438,5.05L532.7,184.072c-.858,4.082-3.757,5.05-5.694,5.05-2.041,0-4.407-.969-3.542-5.05l3.867-18.368Zm-.318,44.47a5.008,5.008,0,0,1-5.368,4.3c-2.684,0-4.407-1.072-3.757-4.082H500.478c-2.145,9.45,1.826,17.939,19.122,17.939,17.614,0,23.2-6.877,26.42-22.235l13.214-61.44h-16.97l-1.183,5.154A14.317,14.317,0,0,0,529.05,143.9c-10.633,0-16,4.3-19.765,20.941l-4.3,20.083c-3.328,15.683,3.328,20.948,13,20.948,8.378,0,11.173-5.908,11.173-5.908l-2.151,10.211Zm32.647,16h18.153l39.745-81.523H598l-13.532,32.654.325-32.654H566.215l3.653,60.368-10.211,21.156Z" transform="translate(-60.697 -25.881)"/></g></svg>