<svg xmlns="http://www.w3.org/2000/svg" viewBox="0 0 88 122.5">
  <defs>
    <style>
      .cls-1, .cls-3 {
        fill: #6c00f0;
      }

      .cls-1 {
        font-size: 24px;
        font-family: Heebo-ExtraBold, Heebo;
        font-weight: 800;
      }

      .cls-2 {
        fill: rgba(0,0,0,0);
      }
    </style>
  </defs>
  <g id="Group_6434" data-name="Group 6434" transform="translate(-172 -864.5)">
    <text id="myPolis" class="cls-1" transform="translate(216 977)"><tspan x="-43.576" y="0">myPolis</tspan></text>
    <g id="Logo_white" data-name="Logo/white" transform="translate(180 864.5)">
      <rect id="Logo_white_background" data-name="Logo/white background" class="cls-2" width="72.644" height="72.644" transform="translate(0 0)"/>
      <path id="Combined_Shape" data-name="Combined Shape" class="cls-3" d="M36.322,72.644a36.909,36.909,0,0,1-3.714-.188A36.4,36.4,0,0,1,29,71.906c-1.17-.239-2.341-.541-3.481-.9s-2.249-.761-3.337-1.221-2.146-.97-3.175-1.53-2.03-1.167-2.995-1.819-1.9-1.352-2.8-2.091-1.761-1.526-2.579-2.344-1.607-1.687-2.344-2.579S6.852,57.59,6.2,56.63s-1.264-1.973-1.819-2.995-1.074-2.1-1.53-3.175-.871-2.211-1.221-3.337-.655-2.31-.9-3.481a36.4,36.4,0,0,1-.55-3.606,36.869,36.869,0,0,1,0-7.427A36.4,36.4,0,0,1,.738,29c.239-1.17.541-2.341.9-3.481s.761-2.249,1.221-3.337.971-2.146,1.53-3.175S5.551,16.979,6.2,16.014s1.352-1.9,2.091-2.8,1.525-1.76,2.344-2.579,1.687-1.608,2.579-2.344,1.836-1.442,2.8-2.091,1.973-1.264,2.995-1.819,2.1-1.074,3.175-1.53,2.211-.871,3.337-1.221S27.832.977,29,.738a36.4,36.4,0,0,1,3.606-.55,36.869,36.869,0,0,1,7.427,0,36.4,36.4,0,0,1,3.606.55c1.171.24,2.342.541,3.481.9s2.249.761,3.337,1.221,2.146.97,3.175,1.53S55.664,5.551,56.63,6.2s1.9,1.352,2.8,2.091,1.761,1.526,2.579,2.344,1.607,1.686,2.344,2.579,1.442,1.836,2.091,2.8,1.264,1.973,1.819,2.995,1.074,2.1,1.53,3.175.871,2.211,1.221,3.337.656,2.311.9,3.481a36.4,36.4,0,0,1,.55,3.606,36.868,36.868,0,0,1,0,7.427,36.4,36.4,0,0,1-.55,3.606c-.24,1.171-.541,2.342-.9,3.481s-.761,2.249-1.221,3.337-.97,2.146-1.53,3.175-1.167,2.03-1.819,2.995-1.352,1.9-2.091,2.8-1.526,1.761-2.344,2.579-1.686,1.607-2.579,2.344-1.836,1.442-2.8,2.091S54.657,67.7,53.635,68.26s-2.1,1.074-3.175,1.53-2.211.871-3.337,1.221-2.31.655-3.481.9a36.4,36.4,0,0,1-3.606.55A36.908,36.908,0,0,1,36.322,72.644ZM22.06,25.548,10.241,39.369h40.6l-4.916,5.748L49.644,48.3,61.463,34.475h-40.6l4.916-5.748Z" transform="translate(0 0)"/>
    </g>
  </g>
</svg>
