<svg xmlns="http://www.w3.org/2000/svg" viewBox="0 0 44 44">
  <defs>
    <style>
      .cls-1 {
        fill: #2b2e34;
      }

      .cls-2 {
        fill: #fff;
      }
    </style>
  </defs>
  <g id="Group_59" data-name="Group 59" transform="translate(-708.77 148.256)">
    <g id="Group_12" data-name="Group 12" transform="translate(708.77 -148.256)">
      <path id="Path_16" data-name="Path 16" class="cls-1" d="M2.666,5.332a22,22,0,0,0,22-22,22,22,0,0,0-22-22,22,22,0,0,0-22,22,22,22,0,0,0,22,22" transform="translate(19.334 38.668)"/>
    </g>
    <g id="Group_14" data-name="Group 14" transform="translate(743.238 -136.078)">
      <path id="Path_18" data-name="Path 18" class="cls-2" d="M.175.349A1.441,1.441,0,0,0,1.615-1.092,1.44,1.44,0,0,0,.175-2.531,1.44,1.44,0,0,0-1.266-1.092,1.441,1.441,0,0,0,.175.349" transform="translate(1.266 2.531)"/>
    </g>
    <g id="Group_15" data-name="Group 15" transform="translate(715.42 -135.903)">
      <path id="Path_19" data-name="Path 19" class="cls-2" d="M.477,0h-3.3a.556.556,0,0,0-.629.629V1.888a.556.556,0,0,0,.629.629H-.782V18.841a.636.636,0,0,0,.176.432.579.579,0,0,0,.453.2H1.106a.6.6,0,0,0,.432-.2.6.6,0,0,0,.2-.432V1.259a1.193,1.193,0,0,0-.373-.9A1.247,1.247,0,0,0,.477,0M11.766,6.491h1.259a.556.556,0,0,0,.629-.629V4.523a4.315,4.315,0,0,0-.354-1.75A4.729,4.729,0,0,0,10.88.354a4.5,4.5,0,0,0-3.5,0A4.729,4.729,0,0,0,4.961,2.773a4.3,4.3,0,0,0-.354,1.75c0,.315.006.564.019.748a2.064,2.064,0,0,0,.1.512A1.979,1.979,0,0,0,5,6.294c.131.183.315.432.551.748l5.468,7.237a.7.7,0,0,1,.1.2,3.162,3.162,0,0,1,.019.472A2.016,2.016,0,0,1,9.13,16.953a2.014,2.014,0,0,1-2.006-2.006V13.61a.557.557,0,0,0-.629-.63H5.236a.557.557,0,0,0-.629.63v1.337a4.292,4.292,0,0,0,.354,1.75A4.729,4.729,0,0,0,7.38,19.117a4.5,4.5,0,0,0,3.5,0A4.729,4.729,0,0,0,13.3,16.7a4.311,4.311,0,0,0,.354-1.75c0-.315-.007-.563-.019-.748a2.108,2.108,0,0,0-.1-.511,1.95,1.95,0,0,0-.275-.512q-.2-.275-.55-.746L7.243,5.192a.657.657,0,0,1-.1-.2,2.98,2.98,0,0,1-.019-.472,1.933,1.933,0,0,1,.589-1.416,1.993,1.993,0,0,1,2.832,0,1.93,1.93,0,0,1,.591,1.416V5.861a.556.556,0,0,0,.629.629M21.639,0H15.581a.556.556,0,0,0-.629.629V1.888a.556.556,0,0,0,.629.629h1.771V18.841a.63.63,0,0,0,.176.432.579.579,0,0,0,.453.2h1.259a.577.577,0,0,0,.452-.2.632.632,0,0,0,.178-.432V2.517h1.771a.556.556,0,0,0,.629-.629V.629A.557.557,0,0,0,21.639,0m5.428,4.941a.585.585,0,0,0-.2-.453.632.632,0,0,0-.432-.176h-1.26a.556.556,0,0,0-.629.629v13.9a.556.556,0,0,0,.629.629h1.26a.556.556,0,0,0,.629-.629Z" transform="translate(3.457)"/>
    </g>
  </g>
</svg>
