<?xml version="1.0" standalone="no"?>
<!DOCTYPE svg PUBLIC "-//W3C//DTD SVG 20010904//EN"
 "http://www.w3.org/TR/2001/REC-SVG-20010904/DTD/svg10.dtd">
<svg version="1.0" xmlns="http://www.w3.org/2000/svg"
 width="300.000000pt" height="300.000000pt" viewBox="0 0 300.000000 300.000000"
 preserveAspectRatio="xMidYMid meet">
<metadata>
Created by potrace 1.11, written by Peter Selinger 2001-2013
</metadata>
<g transform="translate(0.000000,300.000000) scale(0.100000,-0.100000)"
fill="#000000" stroke="none">
<path d="M1349 2996 c-2 -2 -28 -7 -58 -10 -123 -15 -324 -74 -440 -131 -261
-127 -489 -335 -637 -580 -77 -126 -162 -341 -180 -450 -3 -22 -7 -42 -9 -45
-18 -30 -27 -379 -13 -485 43 -318 196 -626 427 -855 215 -214 446 -339 756
-410 119 -28 401 -36 525 -15 119 20 130 22 223 51 437 138 780 454 952 879
20 49 54 151 59 179 2 12 9 42 15 68 20 89 26 154 26 308 0 167 -8 242 -36
355 -134 532 -529 942 -1049 1088 -133 38 -252 54 -416 55 -78 1 -143 0 -145
-2z"/>
</g>
</svg>
